<svg width="400" height="114" viewBox="0 0 400 114" fill="none" xmlns="http://www.w3.org/2000/svg">
<path d="M442.462 76.4662H302.391C294.126 76.4662 290.211 71.6844 290.646 64.729C291.341 53.622 302.391 52.1223 308.046 54.7306C312.57 44.993 323.561 46.3261 328.491 48.2099C328.491 46.0363 329.796 37.342 341.107 35.6032C350.155 34.2121 355.027 40.8197 356.332 44.2974C357.724 41.5153 361.262 41.1095 362.857 41.2544C362.857 35.1685 364.597 11.6939 389.827 12.1286C410.011 12.4764 417.087 27.9232 418.102 35.6032C432.37 34.2121 436.807 46.9057 437.242 53.4264C438.982 50.3834 453.337 50.8181 453.337 62.1207C453.337 71.1627 446.087 75.4519 442.462 76.4662Z" fill="white" fill-opacity="0.5"/>
<path d="M261.123 44.2945H301.659C304.051 44.2945 305.184 42.9085 305.058 40.8924C304.857 37.673 301.659 37.2383 300.022 37.9943C298.713 35.1718 295.532 35.5582 294.106 36.1042C294.106 35.4742 293.728 32.9541 290.455 32.4501C287.836 32.0469 286.426 33.9622 286.049 34.9702C285.646 34.1638 284.622 34.0462 284.16 34.0882C284.16 32.3241 283.657 25.5199 276.355 25.6459C270.514 25.7467 268.466 30.2241 268.172 32.4501C264.043 32.0469 262.759 35.7262 262.633 37.6163C262.13 36.7343 257.975 36.8603 257.975 40.1364C257.975 42.7572 260.074 44.0005 261.123 44.2945Z" fill="white" fill-opacity="0.5"/>
<path d="M179.567 55.7178H103.512C99.0239 55.7178 96.8981 53.1363 97.1343 49.3813C97.5114 43.3852 103.512 42.5756 106.582 43.9836C109.039 38.7268 115.007 39.4465 117.684 40.4634C117.684 39.29 118.392 34.5964 124.533 33.6576C129.446 32.9066 132.092 36.4738 132.8 38.3513C133.556 36.8493 135.477 36.6303 136.343 36.7085C136.343 33.4229 137.288 20.7501 150.987 20.9848C161.947 21.1725 165.789 29.5116 166.34 33.6576C174.088 32.9066 176.497 39.7594 176.733 43.2796C177.678 41.6368 185.472 41.8715 185.472 47.9732C185.472 52.8546 181.536 55.1702 179.567 55.7178Z" fill="white" fill-opacity="0.5"/>
<path d="M-23.0683 114H143.492C153.32 114 157.975 108.317 157.458 100.051C156.632 86.8517 143.492 85.0695 136.767 88.1692C131.388 76.597 118.318 78.1813 112.456 80.42C112.456 77.8369 110.904 67.5046 97.4551 65.4381C86.696 63.7849 80.9025 71.6375 79.3507 75.7704C77.6955 72.4641 73.4884 71.9819 71.5917 72.1541C71.5917 64.9215 69.5227 37.0242 39.5211 37.5408C15.5199 37.9541 7.1057 56.3112 5.89874 65.4381C-11.0676 63.7849 -16.3438 78.8701 -16.861 86.6194C-18.9301 83.003 -35.9999 83.5197 -35.9999 96.9517C-35.9999 107.697 -27.3788 112.795 -23.0683 114Z" fill="white" fill-opacity="0.5"/>
<path d="M-12.1019 24.2454H40.4749C43.5773 24.2454 45.0468 22.4435 44.8835 19.8227C44.6228 15.6374 40.4749 15.0723 38.3522 16.0551C36.6541 12.3859 32.5285 12.8882 30.678 13.5981C30.678 12.779 30.1881 9.50294 25.9428 8.84772C22.5465 8.32354 20.7178 10.8134 20.2279 12.1238C19.7054 11.0755 18.3774 10.9226 17.7787 10.9772C17.7787 8.68392 17.1256 -0.16156 7.6552 0.00224554C0.0789108 0.13329 -2.57714 5.95383 -2.95814 8.84772C-8.31379 8.32354 -9.97927 13.1067 -10.1425 15.5637C-10.7957 14.4171 -16.184 14.5809 -16.184 18.8398C-16.184 22.247 -13.4626 23.8632 -12.1019 24.2454Z" fill="white" fill-opacity="0.5"/>
</svg>
