<svg width="2099" height="489" viewBox="0 0 2099 489" fill="none" xmlns="http://www.w3.org/2000/svg">
<path d="M2052.35 328H1451.52C1416.07 328 1399.27 307.488 1401.14 277.653C1404.12 230.01 1451.52 223.577 1475.78 234.765C1495.18 192.996 1542.33 198.715 1563.48 206.795C1563.48 197.472 1569.07 160.178 1617.59 152.719C1656.4 146.752 1677.3 175.095 1682.9 190.013C1688.87 178.079 1704.04 176.338 1710.89 176.96C1710.89 150.854 1718.35 50.1609 1826.57 52.0256C1913.15 53.5173 1943.51 119.776 1947.86 152.719C2009.06 146.752 2028.09 201.201 2029.96 229.171C2037.42 216.118 2099 217.983 2099 266.465C2099 305.251 2067.9 323.649 2052.35 328Z" fill="white" fill-opacity="0.5"/>
<path d="M1274.5 190H1448.38C1458.64 190 1463.5 184.055 1462.96 175.407C1462.1 161.597 1448.38 159.733 1441.36 162.975C1435.74 150.868 1422.1 152.526 1415.98 154.868C1415.98 152.166 1414.36 141.356 1400.32 139.194C1389.09 137.464 1383.04 145.68 1381.42 150.004C1379.69 146.545 1375.3 146.04 1373.32 146.22C1373.32 138.653 1371.16 109.467 1339.84 110.007C1314.78 110.44 1306 129.645 1304.74 139.194C1287.03 137.464 1281.52 153.247 1280.98 161.354C1278.82 157.571 1261 158.111 1261 172.164C1261 183.406 1270 188.739 1274.5 190Z" fill="white" fill-opacity="0.5"/>
<path d="M924.671 239H598.431C579.181 239 570.063 227.927 571.076 211.82C572.694 186.1 598.431 182.627 611.603 188.667C622.14 166.118 647.739 169.205 659.221 173.567C659.221 168.534 662.261 148.4 688.603 144.374C709.677 141.152 721.025 156.454 724.064 164.507C727.306 158.064 735.547 157.125 739.261 157.46C739.261 143.367 743.314 89.0071 802.078 90.0138C849.089 90.8191 865.57 126.589 867.934 144.374C901.165 141.152 911.5 170.547 912.513 185.647C916.566 178.6 950 179.607 950 205.78C950 226.719 933.114 236.651 924.671 239Z" fill="white" fill-opacity="0.5"/>
<path d="M55.4702 489H769.926C812.083 489 832.052 464.624 829.834 429.168C826.291 372.548 769.926 364.903 741.081 378.199C718.006 328.561 661.944 335.357 636.797 344.959C636.797 333.879 630.141 289.559 572.452 280.695C526.301 273.604 501.45 307.287 494.794 325.015C487.694 310.833 469.647 308.764 461.512 309.503C461.512 278.479 452.637 158.814 323.946 161.03C220.993 162.803 184.901 241.545 179.723 280.695C106.946 273.604 84.3146 338.311 82.0958 371.551C73.2206 356.039 0 358.255 0 415.872C0 461.965 36.9801 483.829 55.4702 489Z" fill="white" fill-opacity="0.5"/>
<path d="M102.51 104H328.037C341.344 104 347.648 96.271 346.947 85.0288C345.829 67.0763 328.037 64.6523 318.932 68.8681C311.648 53.129 293.951 55.2838 286.013 58.3286C286.013 54.8154 283.912 40.7626 265.702 37.9521C251.134 35.7036 243.289 46.3837 241.188 52.0048C238.947 47.5079 233.25 46.8521 230.682 47.0864C230.682 37.2494 227.88 -0.693006 187.258 0.00963217C154.759 0.571742 143.366 25.5388 141.732 37.9521C118.759 35.7036 111.615 56.2206 110.915 66.7602C108.113 61.8417 85 62.5444 85 80.813C85 95.4278 96.6732 102.361 102.51 104Z" fill="white" fill-opacity="0.5"/>
</svg>
