<svg width="349" height="344" viewBox="0 0 349 344" fill="none" xmlns="http://www.w3.org/2000/svg">
<path d="M54.352 215.381C57.6711 215.614 70.3116 221.347 66.4006 230.17C62.4895 238.993 69.2713 250.958 77.4792 254.086C84.6723 256.827 105.494 264.597 110.532 266.477C111.265 266.75 111.935 267.163 112.509 267.694L119.365 274.04C123.435 277.807 120.68 284.281 115.173 283.632C95.649 281.331 64.9926 275.056 63.7053 258.303C62.1163 237.621 55.0091 226.661 52.7578 223.664C52.3194 223.08 51.7518 222.571 51.0354 222.43C48.6843 221.967 47.7114 224.686 47.5144 226.297C46.843 231.785 43.9183 242.255 25.7977 246.451C24.2618 246.807 22.8937 247.211 21.6775 247.652C18.2938 248.881 13.6273 248.321 16.6397 246.35C25.8903 240.297 28.4144 234.39 28.5201 232.193C28.3665 219.588 32.2455 215.585 34.2042 215.159C49.127 213.003 50.203 215.091 54.352 215.381Z" fill="url(#paint0_linear_246_2165)"/>
<path opacity="0.6" d="M54.7931 217.449C53.8804 217.613 53.2283 218.234 53.3366 218.837C53.445 219.44 54.5179 220.231 55.4306 220.067C56.3433 219.903 56.9953 219.281 56.887 218.679C56.7787 218.076 55.7057 217.284 54.7931 217.449Z" fill="#BC3838"/>
<path opacity="0.6" d="M52.5108 215.98C52.0552 216.062 51.7296 216.372 51.7837 216.673C51.8378 216.974 52.3734 217.369 52.8291 217.287C53.2847 217.205 53.6102 216.895 53.5561 216.594C53.5021 216.293 52.9664 215.898 52.5108 215.98Z" fill="#BC3838"/>
<path d="M42.5451 223.167C43.5977 223.182 44.4633 222.341 44.4785 221.289C44.4937 220.236 37.5402 216.683 36.4875 216.668C35.4349 216.653 32.4859 218.178 33.098 220.983C33.0828 222.036 41.5905 221.905 42.5451 223.167Z" fill="white"/>
<path d="M16.2362 160.377C17.6923 149.626 26.7199 144.542 32.1891 143.212C33.75 142.832 34.1535 144.301 33.0833 145.499C26.8812 152.442 31.448 161.163 36.4049 166.123C43.3722 173.094 55.3442 172.874 63.726 154.701C75.7724 128.581 83.4805 125.632 89.8769 122.354C98.5613 117.79 109.902 118.969 117.425 126.462C130.759 139.742 131.934 160.484 143.414 184.405C154.895 208.326 169.469 227.851 182.942 255.102C194.1 277.672 189.8 283.309 187.994 284.58C187.606 284.852 187.115 284.812 186.684 284.616L154.063 269.775C153.921 269.71 153.806 269.644 153.684 269.547C150.908 267.344 114.213 237.564 113.482 202.353C112.722 165.757 112.557 166.784 105.541 160.288C96.7698 152.168 91.0253 169.549 86.2674 177.419C81.5095 185.289 75.029 195.864 63.8772 198.649C54.9557 200.876 43.5286 198.085 33.1318 191.998C26.5462 188.143 14.1819 175.545 16.2362 160.377Z" fill="url(#paint1_linear_246_2165)"/>
<path d="M119.796 134.058C112.318 116.761 91.2449 122.489 97.9775 127.721C104.71 132.952 118.855 135.031 119.907 135.988C120.96 136.945 119.796 134.058 119.796 134.058Z" fill="white"/>
<path opacity="0.6" d="M88.6726 136.135C85.3895 135.447 83.0965 133.131 83.5509 130.963C84.0054 128.795 87.9674 126.045 91.2505 126.733C94.5336 127.422 96.8267 129.737 96.3722 131.905C95.9178 134.073 91.9557 136.823 88.6726 136.135Z" fill="#BC3838"/>
<path opacity="0.6" d="M80.1848 138.108C78.9088 137.841 78.0176 136.941 78.1942 136.098C78.3708 135.256 79.9107 134.187 81.1867 134.454C82.4627 134.722 83.3539 135.622 83.1773 136.464C83.0006 137.307 81.4608 138.376 80.1848 138.108Z" fill="#BC3838"/>
<path opacity="0.6" d="M84.2741 137.866C84.4491 137.001 85.0539 136.394 85.6249 136.509C86.1958 136.625 86.926 137.662 86.7509 138.527C86.5759 139.391 85.9711 139.998 85.4001 139.883C84.8292 139.767 84.099 138.73 84.2741 137.866Z" fill="#BC3838"/>
<path d="M151.319 237.434C150.214 264.567 181.725 294.679 181.725 294.679C181.725 294.679 247 292.651 226.084 289.731C205.169 286.812 199.968 202.636 202.521 183.119C205.075 163.603 195.957 153.417 175.778 135.489C155.6 117.562 161.601 108.299 160.393 87.8365C159.185 67.3743 151.744 61.5563 147.083 72.0628C142.421 82.5693 131.65 110.417 143.111 119.966C154.572 129.515 164.954 152.925 167.6 164.896C170.246 176.868 152.424 210.301 151.319 237.434Z" fill="url(#paint2_linear_246_2165)"/>
<path d="M213.345 135.691C221.609 143.113 219.426 156.058 211.453 163.791C203.958 171.061 191.774 173.279 184.491 165.797L72.383 50.6168C65.7193 43.7705 66.7967 32.5795 74.6441 27.1303C80.5334 23.0408 88.4614 23.5361 93.7959 28.3268L213.345 135.691Z" fill="#FFCC81"/>
<path d="M202.957 156.299L195.895 165.018L66.7217 41.2303L77.8734 36.0672L202.957 156.299Z" fill="#FFDAA4"/>
<path d="M110.625 36.0472C122.913 38.3107 132.567 50.7411 135.574 61.3194C136.274 63.7827 133.44 65.2711 131.159 64.107C120.003 58.4128 107.377 61.7493 100.38 63.3386C89.7262 65.7585 71.831 69.8232 65.2228 62.0259C59.4328 55.194 60.1962 45.3187 61.1896 38.9704C61.4496 37.3084 63.0716 36.2301 64.7282 36.5228C90.5813 41.0905 95.409 33.2441 110.625 36.0472Z" fill="url(#paint3_linear_246_2165)"/>
<path d="M185.293 101.607C191.136 103.57 196.015 106.597 200.049 110.236C202.788 112.706 189.471 127.107 185.783 127.08C174.764 126.998 162.742 128.808 153.04 130.017C128.91 133.023 121.146 114.585 119.519 103.21C119.223 101.14 121.3 99.6153 123.388 99.7364C135.169 100.42 151.467 90.2427 185.293 101.607Z" fill="url(#paint4_linear_246_2165)"/>
<path opacity="0.6" d="M131.999 108.795C129.723 107.974 128.318 106.091 128.86 104.588C129.401 103.085 132.507 101.519 134.782 102.339C137.058 103.16 138.463 105.043 137.921 106.546C137.379 108.049 134.274 109.615 131.999 108.795Z" fill="#BC3838"/>
<path opacity="0.6" d="M136.2 102.114C135.348 101.807 134.822 101.101 135.025 100.538C135.228 99.9756 136.39 99.389 137.243 99.6963C138.095 100.004 138.621 100.709 138.418 101.272C138.215 101.835 137.053 102.421 136.2 102.114Z" fill="#BC3838"/>
<path opacity="0.6" d="M142.814 103.522C141.961 103.215 141.435 102.509 141.638 101.946C141.841 101.384 143.004 100.797 143.856 101.104C144.708 101.412 145.235 102.117 145.032 102.68C144.829 103.243 143.666 103.829 142.814 103.522Z" fill="#BC3838"/>
<path opacity="0.6" d="M122.353 53.6805C120.866 53.1444 119.948 51.9138 120.302 50.932C120.656 49.9502 122.685 48.9269 124.171 49.463C125.658 49.9991 126.576 51.2296 126.222 52.2114C125.868 53.1933 123.84 54.2166 122.353 53.6805Z" fill="#BC3838"/>
<path opacity="0.6" d="M116.919 56.0767C115.432 55.5405 114.514 54.31 114.868 53.3282C115.222 52.3464 117.251 51.3231 118.737 51.8592C120.224 52.3953 122.769 55.9275 122.415 56.9094C122.061 57.8912 118.406 56.6128 116.919 56.0767Z" fill="#BC3838"/>
<path opacity="0.6" d="M118.215 50.6504C117.732 50.4761 117.433 50.0759 117.548 49.7565C117.663 49.4372 118.323 49.1044 118.807 49.2788C119.29 49.4531 119.589 49.8533 119.474 50.1727C119.358 50.492 118.699 50.8248 118.215 50.6504Z" fill="#BC3838"/>
<path d="M190.473 122.543C191.782 123.886 140 128.928 139.102 124.939C139.102 124.939 140.533 124.104 135.828 121.583C131.123 119.062 189.163 121.201 190.473 122.543Z" fill="white"/>
<path d="M98.1967 59.7971C98.8727 60.49 74.4427 63.8384 73.9873 61.771C73.9873 61.771 82.4477 60.93 79.9911 59.021C77.5344 57.112 97.5208 59.1041 98.1967 59.7971Z" fill="white"/>
<path d="M221.347 156.964C223.435 167.38 213.652 176.26 203.479 173.2C194.606 170.531 190.405 159.899 196.731 153.129C198.185 151.573 199.695 150.124 201.313 148.729C208.597 142.448 219.455 147.533 221.347 156.964Z" fill="#FFD3BA"/>
<path d="M224.577 171.07C225.573 175.678 221.11 179.581 216.676 177.981L213.912 176.983C210.248 175.661 208.722 171.185 211.251 168.223C212.557 166.694 213.938 165.312 215.523 164.017C218.593 161.508 222.956 163.566 223.793 167.442L224.577 171.07Z" fill="#4B4B4B"/>
<path d="M129.455 90.7483C128.118 85.2378 137.42 66.1237 143.68 64.605C149.94 63.0862 156.099 66.3222 157.436 71.8327C161.241 79.5176 157.698 85.6108 148.521 84.5603C142.261 86.079 130.792 96.2588 129.455 90.7483Z" fill="url(#paint5_linear_246_2165)"/>
<path opacity="0.6" d="M148.749 74.3445C148.452 73.5192 148.653 72.6912 149.198 72.495C149.743 72.2989 150.898 72.8038 151.195 73.6291C151.492 74.4543 151.291 75.2823 150.746 75.4785C150.201 75.6747 149.046 75.1697 148.749 74.3445Z" fill="#BC3838"/>
<path opacity="0.6" d="M145.801 72.8698C145.504 72.0446 145.705 71.2166 146.25 71.0204C146.795 70.8242 147.95 71.3292 148.247 72.1544C148.544 72.9797 147.935 75.3177 147.39 75.5139C146.845 75.71 146.098 73.6951 145.801 72.8698Z" fill="#BC3838"/>
<path opacity="0.6" d="M148.579 71.5034C148.483 71.235 148.548 70.9657 148.725 70.9019C148.902 70.8381 149.278 71.0023 149.375 71.2707C149.471 71.5391 149.406 71.8084 149.229 71.8722C149.052 71.936 148.676 71.7718 148.579 71.5034Z" fill="#BC3838"/>
<path d="M139.271 84.0536C139.208 83.7927 141.033 83.126 143.348 82.5644C145.663 82.0028 147.591 81.759 147.655 82.0198C147.718 82.2807 138.25 88.5522 135.935 89.1138C133.62 89.6754 139.334 84.3144 139.271 84.0536Z" fill="white"/>
<path d="M325.762 236.886C361.429 260.667 343.585 291.59 327.721 288.94C311.857 286.289 320.762 297.745 299.882 302.779C279.705 307.644 251.259 293.988 249.37 293.064C249.301 293.03 249.233 293.007 249.157 292.989L221.168 286.448C220.539 286.301 220.228 285.619 220.587 285.084C223.087 281.352 233.311 269.324 260.051 271.7C288.494 274.227 318.016 269.416 323.574 268.44C324.101 268.347 324.444 267.855 324.346 267.328C322.546 257.653 313.815 237.625 304.649 236.341C299.385 235.603 286.923 232.092 286 220.692C285.022 208.614 298.529 196.623 305.542 192.039C305.637 191.977 305.72 191.898 305.789 191.808C315.689 178.818 309.831 170.294 302.711 165.88C301.727 165.269 302.175 163.503 303.303 163.762C321.477 167.929 320.766 188.037 317.694 198.678C317.678 198.732 317.657 198.785 317.632 198.836C307.05 220.615 318.637 233.275 325.762 236.886Z" fill="url(#paint6_linear_246_2165)"/>
<path opacity="0.6" d="M331.443 275.629C332.663 274.341 334.324 273.968 335.153 274.796C335.983 275.624 336.09 278.207 334.871 279.495C333.651 280.784 331.99 281.157 331.161 280.328C330.331 279.5 330.224 276.918 331.443 275.629Z" fill="#BC3838"/>
<path opacity="0.6" d="M334.608 273.332C334.97 272.949 335.064 272.44 334.817 272.194C334.571 271.948 333.824 271.937 333.462 272.319C333.1 272.702 333.006 273.211 333.252 273.457C333.499 273.703 334.246 273.714 334.608 273.332Z" fill="#BC3838"/>
<path opacity="0.6" d="M335.634 274.8C335.768 275.317 336.145 275.662 336.477 275.572C336.808 275.481 337.201 274.829 337.067 274.313C336.933 273.797 336.556 273.452 336.225 273.542C335.893 273.632 335.501 274.284 335.634 274.8Z" fill="#BC3838"/>
<path opacity="0.6" d="M301.887 229.634C300.771 229.885 299.734 229.473 299.572 228.715C299.41 227.957 300.256 226.51 301.373 226.259C302.49 226.008 303.526 226.419 303.689 227.177C303.851 227.936 303.004 229.383 301.887 229.634Z" fill="#BC3838"/>
<path opacity="0.6" d="M299.484 233.292C298.368 233.543 297.331 233.132 297.169 232.374C297.006 231.615 297.853 230.168 298.97 229.917C300.087 229.666 303.007 230.883 303.169 231.641C303.332 232.399 300.601 233.041 299.484 233.292Z" fill="#BC3838"/>
<path opacity="0.6" d="M298.185 229.366C297.822 229.448 297.485 229.314 297.432 229.067C297.379 228.821 297.654 228.35 298.018 228.268C298.381 228.187 298.718 228.32 298.771 228.567C298.823 228.814 298.548 229.284 298.185 229.366Z" fill="#BC3838"/>
<path d="M296.059 220.943C297.86 221.918 298.552 224.205 297.605 226.052C296.658 227.9 294.431 228.607 292.63 227.633C290.829 226.658 287.233 221.198 290.865 216.895C291.812 215.048 293.272 222.233 296.059 220.943Z" fill="white"/>
<defs>
<linearGradient id="paint0_linear_246_2165" x1="52.6034" y1="214.271" x2="25.5584" y2="266.898" gradientUnits="userSpaceOnUse">
<stop stop-color="#FC6F68"/>
<stop offset="1" stop-color="#D54962"/>
</linearGradient>
<linearGradient id="paint1_linear_246_2165" x1="127.128" y1="139.682" x2="31.3881" y2="197.088" gradientUnits="userSpaceOnUse">
<stop stop-color="#FC6F68"/>
<stop offset="1" stop-color="#D54962"/>
</linearGradient>
<linearGradient id="paint2_linear_246_2165" x1="146.792" y1="68.0668" x2="197.707" y2="298.436" gradientUnits="userSpaceOnUse">
<stop stop-color="#FC6F68"/>
<stop offset="1" stop-color="#D54962"/>
</linearGradient>
<linearGradient id="paint3_linear_246_2165" x1="122.687" y1="81.2566" x2="70.3055" y2="27.5621" gradientUnits="userSpaceOnUse">
<stop stop-color="#FC6F68"/>
<stop offset="1" stop-color="#D54962"/>
</linearGradient>
<linearGradient id="paint4_linear_246_2165" x1="202.754" y1="155.849" x2="133.535" y2="84.8956" gradientUnits="userSpaceOnUse">
<stop stop-color="#FC6F68"/>
<stop offset="1" stop-color="#D54962"/>
</linearGradient>
<linearGradient id="paint5_linear_246_2165" x1="145.544" y1="89.0873" x2="139.831" y2="65.5386" gradientUnits="userSpaceOnUse">
<stop stop-color="#FC6F68"/>
<stop offset="1" stop-color="#D64A63"/>
</linearGradient>
<linearGradient id="paint6_linear_246_2165" x1="313.144" y1="288.564" x2="316.369" y2="163.508" gradientUnits="userSpaceOnUse">
<stop stop-color="#F1665F"/>
<stop offset="1" stop-color="#D54962"/>
</linearGradient>
</defs>
</svg>
