<svg width="1063" height="1051" viewBox="0 0 1063 1051" fill="none" xmlns="http://www.w3.org/2000/svg">
<path d="M162.1 658.207C172.243 658.916 210.873 676.436 198.92 703.399C186.968 730.363 207.693 766.93 232.777 776.488C256.138 785.39 326.539 811.651 336.094 815.214C336.827 815.488 337.468 815.89 338.042 816.421L384.946 859.836C389.016 863.603 386.338 870.234 380.805 869.852C333.318 866.577 195.473 851.712 190.684 789.374C185.423 720.91 160.375 687.308 155.837 681.734C155.376 681.168 154.8 680.709 154.127 680.425C145.365 676.725 141.863 686.175 141.204 691.565C139.153 708.336 130.215 740.334 74.838 753.156C59.6499 756.673 49.8315 761.73 43.737 767.275C38.7964 771.77 28.3358 773.468 31.6574 767.673C34.4104 762.87 39.2061 757.849 46.8509 752.847C75.1208 734.35 82.8345 716.297 83.1576 709.583C82.6882 671.063 94.5424 658.828 100.528 657.526C146.132 650.939 149.421 657.32 162.1 658.207Z" fill="url(#paint0_linear_190_1994)"/>
<path opacity="0.6" d="M163.448 664.524C160.659 665.025 158.666 666.925 158.997 668.767C159.328 670.609 162.607 673.027 165.396 672.525C168.185 672.024 170.178 670.125 169.847 668.283C169.516 666.441 166.237 664.023 163.448 664.524Z" fill="#BC3838"/>
<path opacity="0.6" d="M156.473 660.036C155.081 660.286 154.086 661.235 154.251 662.154C154.417 663.074 156.053 664.281 157.446 664.031C158.838 663.78 159.833 662.832 159.668 661.913C159.503 660.993 157.866 659.786 156.473 660.036Z" fill="#BC3838"/>
<path d="M126.018 682C129.235 682.047 131.88 679.477 131.927 676.26C131.973 673.043 110.723 662.185 107.506 662.138C104.289 662.092 95.2771 666.754 97.1478 675.326C97.1013 678.543 123.101 678.143 126.018 682Z" fill="white"/>
<path d="M45.6177 490.113C50.8573 451.427 88.1764 436.754 102.051 436.543C103.657 436.519 103.998 438.286 102.75 439.298C75.7544 461.189 90.8006 491.209 107.253 507.671C128.545 528.976 165.132 528.305 190.747 472.766C227.56 392.945 251.117 383.932 270.664 373.914C297.204 359.967 331.862 363.57 354.852 386.467C395.6 427.051 399.191 490.441 434.275 563.543C469.359 636.645 513.898 696.313 555.07 779.592C592.304 854.906 573.215 868.525 569.223 870.441C568.796 870.645 568.311 870.607 567.88 870.411L466.379 824.234C466.237 824.169 466.19 824.156 466.068 824.06C462.191 821.023 345.083 728.377 342.801 618.392C340.479 506.555 339.976 509.693 318.533 489.842C291.729 465.028 274.173 518.143 259.633 542.194C245.093 566.244 225.289 598.562 191.209 607.072C163.945 613.879 129.023 605.349 97.2508 586.748C77.1251 574.965 39.3397 536.466 45.6177 490.113Z" fill="url(#paint1_linear_190_1994)"/>
<path d="M362.097 409.682C339.245 356.822 274.845 374.328 295.42 390.316C315.995 406.303 359.22 412.657 362.437 415.58C365.654 418.504 362.097 409.682 362.097 409.682Z" fill="white"/>
<path opacity="0.6" d="M266.984 416.029C256.951 413.926 249.943 406.849 251.332 400.224C252.721 393.598 264.829 385.195 274.862 387.298C284.895 389.401 291.903 396.477 290.514 403.103C289.125 409.729 277.017 418.132 266.984 416.029Z" fill="#BC3838"/>
<path opacity="0.6" d="M241.045 422.06C237.146 421.242 234.422 418.492 234.962 415.917C235.502 413.342 240.208 410.076 244.107 410.894C248.007 411.711 250.73 414.461 250.19 417.036C249.651 419.611 244.945 422.877 241.045 422.06Z" fill="#BC3838"/>
<path opacity="0.6" d="M253.542 421.318C254.077 418.676 255.925 416.82 257.67 417.173C259.415 417.527 261.646 420.696 261.111 423.338C260.576 425.98 258.728 427.835 256.983 427.482C255.239 427.129 253.007 423.96 253.542 421.318Z" fill="#BC3838"/>
<path d="M458.43 725.601C455.053 808.519 551.354 900.539 551.354 900.539C551.354 900.539 750.833 894.342 686.914 885.42C622.996 876.498 607.102 619.258 614.906 559.614C622.71 499.97 594.844 468.844 533.179 414.056C471.513 359.269 489.854 330.962 486.162 268.429C482.47 205.896 459.73 188.117 445.485 220.224C431.239 252.332 398.322 337.436 433.348 366.618C468.374 395.8 500.101 467.34 508.187 503.924C516.273 540.508 461.808 642.682 458.43 725.601Z" fill="url(#paint2_linear_190_1994)"/>
<path d="M647.984 414.673C673.238 437.353 666.566 476.914 642.201 500.546C619.297 522.762 582.061 529.541 559.805 506.675L217.203 154.685C196.839 133.763 200.131 99.5631 224.113 82.9102C242.111 70.4127 266.339 71.9264 282.641 86.5669L647.984 414.673Z" fill="#FFCC81"/>
<path d="M616.237 477.652L594.656 504.297L199.902 126L233.981 110.222L616.237 477.652Z" fill="#FFDAA4"/>
<path d="M334.072 110.16C376.861 118.043 409.199 166.268 412.941 200.491C413.22 203.037 410.262 204.445 408.197 202.929C371.684 176.133 326.565 188.156 302.761 193.563C270.204 200.958 215.516 213.38 195.321 189.551C175.597 166.278 180.759 131.448 184.039 112.873C184.331 111.216 185.984 110.151 187.636 110.47C272.085 126.818 286.384 101.376 334.072 110.16Z" fill="url(#paint3_linear_190_1994)"/>
<path d="M562.256 310.511C609.057 326.235 635.623 364.296 648.496 399.813C649.752 403.28 639.413 408.124 636.43 405.955C597.224 377.451 518.393 390.516 463.69 397.332C383.271 407.351 362.335 339.426 360.337 306.561C360.21 304.474 362.28 303.019 364.311 303.517C401.122 312.545 450.241 272.878 562.256 310.511Z" fill="url(#paint4_linear_190_1994)"/>
<path opacity="0.6" d="M399.389 332.477C392.434 329.97 388.139 324.214 389.796 319.621C391.452 315.028 400.941 310.242 407.895 312.749C414.85 315.257 419.145 321.013 417.488 325.606C415.832 330.198 406.343 334.985 399.389 332.477Z" fill="#BC3838"/>
<path opacity="0.6" d="M412.229 312.061C409.624 311.122 408.016 308.966 408.636 307.246C409.256 305.526 412.81 303.733 415.414 304.672C418.019 305.612 419.628 307.767 419.007 309.487C418.387 311.207 414.833 313 412.229 312.061Z" fill="#BC3838"/>
<path opacity="0.6" d="M432.439 316.364C429.835 315.425 428.226 313.269 428.846 311.549C429.466 309.829 433.02 308.036 435.625 308.975C438.229 309.915 439.838 312.07 439.218 313.79C438.598 315.51 435.044 317.303 432.439 316.364Z" fill="#BC3838"/>
<path opacity="0.6" d="M369.911 164.048C365.368 162.409 362.562 158.649 363.644 155.648C364.726 152.648 370.925 149.521 375.469 151.159C380.012 152.798 382.818 156.558 381.736 159.558C380.654 162.559 374.454 165.686 369.911 164.048Z" fill="#BC3838"/>
<path opacity="0.6" d="M353.305 171.371C348.761 169.732 345.955 165.972 347.037 162.971C348.119 159.971 354.319 156.844 358.862 158.482C363.406 160.12 371.183 170.915 370.101 173.915C369.019 176.916 357.848 173.009 353.305 171.371Z" fill="#BC3838"/>
<path opacity="0.6" d="M357.266 154.788C355.789 154.255 354.876 153.032 355.228 152.056C355.58 151.08 357.596 150.063 359.074 150.596C360.552 151.129 361.464 152.352 361.112 153.328C360.76 154.304 358.744 155.321 357.266 154.788Z" fill="#BC3838"/>
<path d="M578.086 374.493C582.088 378.595 423.841 394.005 421.097 381.813C421.097 381.813 425.471 379.262 411.092 371.557C396.713 363.853 574.084 370.39 578.086 374.493Z" fill="white"/>
<path d="M296.09 182.74C298.156 184.858 223.497 195.09 222.106 188.773C222.106 188.773 247.961 186.202 240.453 180.369C232.946 174.535 294.024 180.623 296.09 182.74Z" fill="white"/>
<path d="M680.631 520.546C683.303 533.87 670.811 545.237 657.797 541.322L586.511 519.879C575.177 516.47 570.104 503.192 576.866 493.479C595.066 467.336 611.848 451.518 639.231 433.974C649.592 427.337 663.179 433.519 665.598 445.584L680.631 520.546Z" fill="#FFD3BA"/>
<path d="M687.015 544.561C688.011 549.169 683.548 553.073 679.113 551.472L634.905 535.516C631.241 534.194 629.783 529.775 632.019 526.586C642.237 512.008 651.817 501.592 667.933 491.995C671.34 489.967 675.651 491.983 676.489 495.859L687.015 544.561Z" fill="#4B4B4B"/>
<path d="M391.615 277.327C387.53 260.487 415.955 202.074 435.087 197.433C454.219 192.792 473.04 202.681 477.125 219.521C488.752 243.006 477.924 261.627 449.881 258.417C430.749 263.058 395.701 294.167 391.615 277.327Z" fill="url(#paint5_linear_190_1994)"/>
<path opacity="0.6" d="M450.577 227.197C449.669 224.675 450.283 222.145 451.949 221.545C453.614 220.946 457.145 222.489 458.053 225.011C458.961 227.533 458.346 230.063 456.681 230.663C455.015 231.262 451.484 229.719 450.577 227.197Z" fill="#BC3838"/>
<path opacity="0.6" d="M441.568 222.691C440.661 220.169 441.275 217.638 442.94 217.039C444.606 216.439 448.137 217.982 449.045 220.504C449.952 223.026 448.091 230.171 446.425 230.771C444.76 231.37 442.476 225.213 441.568 222.691Z" fill="#BC3838"/>
<path opacity="0.6" d="M450.059 218.515C449.764 217.694 449.963 216.871 450.505 216.677C451.047 216.482 452.195 216.983 452.49 217.804C452.786 218.624 452.586 219.447 452.044 219.642C451.502 219.837 450.354 219.335 450.059 218.515Z" fill="#BC3838"/>
<path d="M421.613 256.868C421.42 256.071 426.998 254.034 434.073 252.317C441.148 250.601 447.04 249.856 447.233 250.653C447.427 251.45 418.493 270.616 411.418 272.332C404.344 274.049 421.807 257.665 421.613 256.868Z" fill="white"/>
<path d="M991.532 723.924C1100.53 796.599 1046 891.1 997.518 883.001C949.037 874.902 976.249 909.91 912.442 925.295C849.431 940.487 760.038 896.577 757.816 895.478C757.746 895.443 757.735 895.448 757.66 895.43L669.358 874.794C668.73 874.647 668.397 873.984 668.723 873.428C673.09 865.962 702.477 822.476 790.716 830.316C881.881 838.415 976.67 821.847 986.797 820.005C987.324 819.909 987.631 819.447 987.545 818.918C982.912 790.196 955.657 726.274 927.01 722.26C910.922 720.005 872.839 709.274 870.017 674.437C867.014 637.358 908.679 600.552 930.025 586.684C930.12 586.623 930.203 586.544 930.271 586.454C966.81 538.8 934.03 510.753 908.179 500.435C907.104 500.006 907.422 498.307 908.576 498.387C978.844 503.274 977.001 572.279 966.826 607.325C966.81 607.379 966.789 607.432 966.764 607.483C934.29 674.138 969.739 712.881 991.532 723.924Z" fill="url(#paint6_linear_190_1994)"/>
<path opacity="0.6" d="M1008.89 842.325C1012.62 838.388 1017.69 837.248 1020.23 839.779C1022.76 842.309 1023.09 850.202 1019.37 854.139C1015.64 858.076 1010.56 859.216 1008.03 856.685C1005.49 854.155 1005.17 846.262 1008.89 842.325Z" fill="#BC3838"/>
<path opacity="0.6" d="M1018.56 835.303C1019.67 834.134 1019.96 832.577 1019.2 831.826C1018.45 831.075 1016.17 831.041 1015.06 832.21C1013.96 833.379 1013.67 834.935 1014.42 835.687C1015.17 836.438 1017.46 836.472 1018.56 835.303Z" fill="#BC3838"/>
<path opacity="0.6" d="M1021.7 839.792C1022.11 841.369 1023.26 842.424 1024.27 842.148C1025.29 841.873 1026.49 839.879 1026.08 838.302C1025.67 836.724 1024.52 835.669 1023.5 835.945C1022.49 836.221 1021.29 838.215 1021.7 839.792Z" fill="#BC3838"/>
<path opacity="0.6" d="M918.569 701.762C915.157 702.529 911.989 701.272 911.493 698.955C910.998 696.637 913.585 692.215 916.997 691.448C920.41 690.682 923.578 691.939 924.074 694.256C924.569 696.573 921.982 700.995 918.569 701.762Z" fill="#BC3838"/>
<path opacity="0.6" d="M911.225 712.943C907.812 713.71 904.644 712.452 904.148 710.135C903.653 707.817 906.24 703.394 909.653 702.627C913.066 701.86 921.991 705.579 922.487 707.896C922.982 710.214 914.638 712.176 911.225 712.943Z" fill="#BC3838"/>
<path opacity="0.6" d="M907.254 700.943C906.144 701.193 905.114 700.784 904.953 700.03C904.792 699.277 905.633 697.839 906.743 697.589C907.853 697.34 908.883 697.749 909.044 698.502C909.205 699.256 908.364 700.694 907.254 700.943Z" fill="#BC3838"/>
<path d="M900.758 675.204C906.261 678.182 908.377 685.172 905.483 690.817C902.589 696.463 895.782 698.625 890.279 695.647C884.776 692.669 873.786 675.981 884.884 662.833C887.777 657.188 892.242 679.146 900.758 675.204Z" fill="white"/>
<defs>
<linearGradient id="paint0_linear_190_1994" x1="156.756" y1="654.815" x2="74.1065" y2="815.641" gradientUnits="userSpaceOnUse">
<stop stop-color="#FC6F68"/>
<stop offset="1" stop-color="#D54962"/>
</linearGradient>
<linearGradient id="paint1_linear_190_1994" x1="384.505" y1="426.869" x2="91.9218" y2="602.303" gradientUnits="userSpaceOnUse">
<stop stop-color="#FC6F68"/>
<stop offset="1" stop-color="#D54962"/>
</linearGradient>
<linearGradient id="paint2_linear_190_1994" x1="444.596" y1="208.012" x2="600.194" y2="912.023" gradientUnits="userSpaceOnUse">
<stop stop-color="#FC6F68"/>
<stop offset="1" stop-color="#D54962"/>
</linearGradient>
<linearGradient id="paint3_linear_190_1994" x1="370.932" y1="248.321" x2="210.854" y2="84.2299" gradientUnits="userSpaceOnUse">
<stop stop-color="#FC6F68"/>
<stop offset="1" stop-color="#D54962"/>
</linearGradient>
<linearGradient id="paint4_linear_190_1994" x1="615.616" y1="476.276" x2="404.084" y2="259.441" gradientUnits="userSpaceOnUse">
<stop stop-color="#FC6F68"/>
<stop offset="1" stop-color="#D54962"/>
</linearGradient>
<linearGradient id="paint5_linear_190_1994" x1="440.783" y1="272.251" x2="423.325" y2="200.286" gradientUnits="userSpaceOnUse">
<stop stop-color="#FC6F68"/>
<stop offset="1" stop-color="#D64A63"/>
</linearGradient>
<linearGradient id="paint6_linear_190_1994" x1="952.97" y1="881.852" x2="962.826" y2="499.68" gradientUnits="userSpaceOnUse">
<stop stop-color="#F1665F"/>
<stop offset="1" stop-color="#D54962"/>
</linearGradient>
</defs>
</svg>
