<svg width="778" height="290" viewBox="0 0 778 290" fill="none" xmlns="http://www.w3.org/2000/svg">
<g filter="url(#filter0_d_186_2536)">
<g filter="url(#filter1_d_186_2536)">
<path d="M248.62 156.176C248.62 155.091 248.374 154.351 247.88 153.956C247.486 153.561 246.548 153.216 245.068 152.92L239.592 151.736V148.776H287.84V151.736L282.364 152.92C280.884 153.216 279.898 153.561 279.404 153.956C279.01 154.351 278.812 155.091 278.812 156.176V244.976C278.812 246.061 279.01 246.801 279.404 247.196C279.898 247.591 280.884 247.936 282.364 248.232L287.84 249.416V252.376H239.592V249.416L245.068 248.232C246.548 247.936 247.486 247.591 247.88 247.196C248.374 246.801 248.62 246.061 248.62 244.976V156.176ZM360.914 244.976C360.914 246.061 361.112 246.801 361.506 247.196C362 247.591 362.986 247.936 364.466 248.232L369.942 249.416V252.376H321.694V249.416L327.17 248.232C328.65 247.936 329.588 247.591 329.982 247.196C330.476 246.801 330.722 246.061 330.722 244.976V152.92H327.318C321.3 152.92 316.613 153.907 313.258 155.88C310.002 157.853 307.486 160.419 305.71 163.576C304.033 166.733 301.912 171.765 299.346 178.672H296.09V148.776H395.546V178.672H392.29C389.725 171.765 387.554 166.733 385.778 163.576C384.101 160.419 381.585 157.853 378.23 155.88C374.974 153.907 370.337 152.92 364.318 152.92H360.914V244.976ZM422.132 170.384C421.441 170.483 420.504 170.532 419.32 170.532C415.571 170.532 412.709 169.496 410.736 167.424C408.861 165.253 407.924 162.589 407.924 159.432C407.924 156.077 409.009 153.265 411.18 150.996C413.449 148.727 416.508 147.592 420.356 147.592C424.303 147.592 427.46 148.727 429.828 150.996C432.196 153.167 433.38 156.373 433.38 160.616C433.38 166.339 431.653 172.16 428.2 178.08C424.747 183.901 420.504 188.785 415.472 192.732L412.512 189.624C418.925 182.816 422.132 176.403 422.132 170.384Z" fill="white"/>
<path d="M247.88 153.956L246.466 155.37L246.544 155.449L246.631 155.518L247.88 153.956ZM245.068 152.92L244.646 154.875L244.661 154.878L244.676 154.881L245.068 152.92ZM239.592 151.736H237.592V153.35L239.17 153.691L239.592 151.736ZM239.592 148.776V146.776H237.592V148.776H239.592ZM287.84 148.776H289.84V146.776H287.84V148.776ZM287.84 151.736L288.263 153.691L289.84 153.35V151.736H287.84ZM282.364 152.92L282.757 154.881L282.772 154.878L282.787 154.875L282.364 152.92ZM279.404 153.956L278.155 152.394L278.068 152.463L277.99 152.542L279.404 153.956ZM279.404 247.196L277.99 248.61L278.068 248.689L278.155 248.758L279.404 247.196ZM282.364 248.232L282.787 246.277L282.772 246.274L282.757 246.271L282.364 248.232ZM287.84 249.416H289.84V247.802L288.263 247.461L287.84 249.416ZM287.84 252.376V254.376H289.84V252.376H287.84ZM239.592 252.376H237.592V254.376H239.592V252.376ZM239.592 249.416L239.17 247.461L237.592 247.802V249.416H239.592ZM245.068 248.232L244.676 246.271L244.661 246.274L244.646 246.277L245.068 248.232ZM247.88 247.196L246.631 245.634L246.544 245.703L246.466 245.782L247.88 247.196ZM250.62 156.176C250.62 154.905 250.35 153.371 249.13 152.394L246.631 155.518C246.513 155.423 246.508 155.349 246.538 155.439C246.573 155.543 246.62 155.771 246.62 156.176H250.62ZM249.295 152.542C248.79 152.037 248.132 151.73 247.573 151.524C246.971 151.303 246.257 151.118 245.461 150.959L244.676 154.881C245.36 155.018 245.854 155.154 246.19 155.278C246.569 155.417 246.576 155.48 246.466 155.37L249.295 152.542ZM245.491 150.965L240.015 149.781L239.17 153.691L244.646 154.875L245.491 150.965ZM241.592 151.736V148.776H237.592V151.736H241.592ZM239.592 150.776H287.84V146.776H239.592V150.776ZM285.84 148.776V151.736H289.84V148.776H285.84ZM287.418 149.781L281.942 150.965L282.787 154.875L288.263 153.691L287.418 149.781ZM281.972 150.959C281.177 151.118 280.464 151.3 279.854 151.513C279.268 151.718 278.656 151.994 278.155 152.394L280.654 155.518C280.646 155.524 280.774 155.429 281.175 155.289C281.552 155.157 282.071 155.018 282.757 154.881L281.972 150.959ZM277.99 152.542C276.994 153.537 276.812 155.001 276.812 156.176H280.812C280.812 155.741 280.853 155.471 280.893 155.322C280.933 155.171 280.946 155.243 280.819 155.37L277.99 152.542ZM276.812 156.176V244.976H280.812V156.176H276.812ZM276.812 244.976C276.812 246.151 276.994 247.615 277.99 248.61L280.819 245.782C280.946 245.909 280.933 245.981 280.893 245.83C280.853 245.681 280.812 245.411 280.812 244.976H276.812ZM278.155 248.758C278.656 249.159 279.268 249.434 279.854 249.639C280.464 249.852 281.177 250.034 281.972 250.193L282.757 246.271C282.071 246.134 281.552 245.995 281.175 245.863C280.774 245.723 280.646 245.628 280.654 245.634L278.155 248.758ZM281.942 250.187L287.418 251.371L288.263 247.461L282.787 246.277L281.942 250.187ZM285.84 249.416V252.376H289.84V249.416H285.84ZM287.84 250.376H239.592V254.376H287.84V250.376ZM241.592 252.376V249.416H237.592V252.376H241.592ZM240.015 251.371L245.491 250.187L244.646 246.277L239.17 247.461L240.015 251.371ZM245.461 250.193C246.257 250.034 246.971 249.849 247.573 249.628C248.132 249.422 248.79 249.115 249.295 248.61L246.466 245.782C246.576 245.672 246.569 245.735 246.19 245.874C245.854 245.998 245.36 246.134 244.676 246.271L245.461 250.193ZM249.13 248.758C250.35 247.781 250.62 246.247 250.62 244.976H246.62C246.62 245.381 246.573 245.609 246.538 245.713C246.508 245.803 246.513 245.729 246.631 245.634L249.13 248.758ZM250.62 244.976V156.176H246.62V244.976H250.62ZM361.506 247.196L360.092 248.61L360.17 248.689L360.257 248.758L361.506 247.196ZM364.466 248.232L364.889 246.277L364.874 246.274L364.858 246.271L364.466 248.232ZM369.942 249.416H371.942V247.802L370.365 247.461L369.942 249.416ZM369.942 252.376V254.376H371.942V252.376H369.942ZM321.694 252.376H319.694V254.376H321.694V252.376ZM321.694 249.416L321.272 247.461L319.694 247.802V249.416H321.694ZM327.17 248.232L326.778 246.271L326.763 246.274L326.748 246.277L327.17 248.232ZM329.982 247.196L328.733 245.634L328.646 245.703L328.568 245.782L329.982 247.196ZM330.722 152.92H332.722V150.92H330.722V152.92ZM313.258 155.88L312.244 154.156L312.233 154.163L312.222 154.17L313.258 155.88ZM305.71 163.576L303.967 162.595L303.955 162.616L303.944 162.638L305.71 163.576ZM299.346 178.672V180.672H300.737L301.221 179.368L299.346 178.672ZM296.09 178.672H294.09V180.672H296.09V178.672ZM296.09 148.776V146.776H294.09V148.776H296.09ZM395.546 148.776H397.546V146.776H395.546V148.776ZM395.546 178.672V180.672H397.546V178.672H395.546ZM392.29 178.672L390.415 179.368L390.9 180.672H392.29V178.672ZM385.778 163.576L384.012 164.514L384.023 164.536L384.035 164.557L385.778 163.576ZM378.23 155.88L377.194 157.59L377.205 157.597L377.216 157.604L378.23 155.88ZM360.914 152.92V150.92H358.914V152.92H360.914ZM358.914 244.976C358.914 246.151 359.096 247.615 360.092 248.61L362.92 245.782C363.048 245.909 363.035 245.981 362.995 245.83C362.955 245.681 362.914 245.411 362.914 244.976H358.914ZM360.257 248.758C360.758 249.159 361.37 249.434 361.955 249.639C362.566 249.852 363.279 250.034 364.074 250.193L364.858 246.271C364.173 246.134 363.653 245.995 363.277 245.863C362.876 245.723 362.748 245.628 362.756 245.634L360.257 248.758ZM364.044 250.187L369.52 251.371L370.365 247.461L364.889 246.277L364.044 250.187ZM367.942 249.416V252.376H371.942V249.416H367.942ZM369.942 250.376H321.694V254.376H369.942V250.376ZM323.694 252.376V249.416H319.694V252.376H323.694ZM322.117 251.371L327.593 250.187L326.748 246.277L321.272 247.461L322.117 251.371ZM327.562 250.193C328.358 250.034 329.073 249.849 329.675 249.628C330.233 249.422 330.892 249.115 331.396 248.61L328.568 245.782C328.678 245.672 328.67 245.735 328.292 245.874C327.956 245.998 327.462 246.134 326.778 246.271L327.562 250.193ZM331.232 248.758C332.452 247.781 332.722 246.247 332.722 244.976H328.722C328.722 245.381 328.674 245.609 328.64 245.713C328.61 245.803 328.615 245.729 328.733 245.634L331.232 248.758ZM332.722 244.976V152.92H328.722V244.976H332.722ZM330.722 150.92H327.318V154.92H330.722V150.92ZM327.318 150.92C321.121 150.92 316.03 151.929 312.244 154.156L314.272 157.604C317.195 155.884 321.478 154.92 327.318 154.92V150.92ZM312.222 154.17C308.687 156.312 305.921 159.123 303.967 162.595L307.453 164.557C309.052 161.715 311.318 159.395 314.295 157.59L312.222 154.17ZM303.944 162.638C302.201 165.918 300.042 171.054 297.471 177.976L301.221 179.368C303.781 172.477 305.864 167.549 307.476 164.514L303.944 162.638ZM299.346 176.672H296.09V180.672H299.346V176.672ZM298.09 178.672V148.776H294.09V178.672H298.09ZM296.09 150.776H395.546V146.776H296.09V150.776ZM393.546 148.776V178.672H397.546V148.776H393.546ZM395.546 176.672H392.29V180.672H395.546V176.672ZM394.165 177.976C391.592 171.049 389.378 165.896 387.521 162.595L384.035 164.557C385.731 167.571 387.857 172.481 390.415 179.368L394.165 177.976ZM387.544 162.638C385.678 159.125 382.888 156.3 379.244 154.156L377.216 157.604C380.282 159.407 382.523 161.712 384.012 164.514L387.544 162.638ZM379.267 154.17C375.566 151.927 370.509 150.92 364.318 150.92V154.92C370.165 154.92 374.382 155.886 377.194 157.59L379.267 154.17ZM364.318 150.92H360.914V154.92H364.318V150.92ZM358.914 152.92V244.976H362.914V152.92H358.914ZM422.132 170.384H424.132V168.078L421.849 168.404L422.132 170.384ZM410.736 167.424L409.222 168.731L409.254 168.768L409.288 168.803L410.736 167.424ZM411.18 150.996L409.766 149.582L409.75 149.597L409.735 149.614L411.18 150.996ZM429.828 150.996L428.444 152.44L428.46 152.455L428.476 152.47L429.828 150.996ZM428.2 178.08L429.92 179.1L429.924 179.094L429.927 179.088L428.2 178.08ZM415.472 192.732L414.024 194.111L415.277 195.427L416.706 194.306L415.472 192.732ZM412.512 189.624L411.056 188.253L409.757 189.632L411.064 191.003L412.512 189.624ZM421.849 168.404C421.294 168.483 420.465 168.532 419.32 168.532V172.532C420.543 172.532 421.588 172.482 422.415 172.364L421.849 168.404ZM419.32 168.532C415.94 168.532 413.673 167.608 412.184 166.045L409.288 168.803C411.746 171.384 415.201 172.532 419.32 172.532V168.532ZM412.249 166.117C410.721 164.347 409.924 162.161 409.924 159.432H405.924C405.924 163.017 407.001 166.16 409.222 168.731L412.249 166.117ZM409.924 159.432C409.924 156.554 410.836 154.249 412.625 152.378L409.735 149.614C407.182 152.282 405.924 155.601 405.924 159.432H409.924ZM412.594 152.41C414.415 150.589 416.925 149.592 420.356 149.592V145.592C416.09 145.592 412.483 146.864 409.766 149.582L412.594 152.41ZM420.356 149.592C423.898 149.592 426.522 150.598 428.444 152.44L431.212 149.552C428.398 146.856 424.707 145.592 420.356 145.592V149.592ZM428.476 152.47C430.31 154.151 431.38 156.745 431.38 160.616H435.38C435.38 156.002 434.082 152.182 431.179 149.522L428.476 152.47ZM431.38 160.616C431.38 165.92 429.783 171.398 426.472 177.072L429.927 179.088C433.524 172.922 435.38 166.757 435.38 160.616H431.38ZM426.48 177.06C423.145 182.681 419.064 187.373 414.238 191.158L416.706 194.306C421.944 190.197 426.348 185.122 429.92 179.1L426.48 177.06ZM416.92 191.353L413.96 188.245L411.064 191.003L414.024 194.111L416.92 191.353ZM413.968 190.995C420.544 184.015 424.132 177.132 424.132 170.384H420.132C420.132 175.673 417.307 181.617 411.056 188.253L413.968 190.995Z" fill="white"/>
<path d="M568.512 94.776C549.952 98.936 536.032 106.216 526.752 116.616C517.472 127.016 511.312 141.416 508.272 159.816C517.552 155.976 527.632 154.056 538.512 154.056C551.152 154.056 561.952 156.216 570.912 160.536C580.032 164.856 586.912 170.936 591.552 178.776C596.192 186.456 598.512 195.256 598.512 205.176C598.512 217.176 595.632 227.576 589.872 236.376C584.112 245.016 575.952 251.656 565.392 256.296C554.832 260.936 542.432 263.256 528.192 263.256C512.672 263.256 499.232 260.296 487.872 254.376C476.512 248.296 467.792 239.976 461.712 229.416C455.632 218.696 452.592 206.456 452.592 192.696C452.592 175.256 456.592 159.256 464.592 144.696C472.592 130.136 485.072 117.976 502.032 108.216C519.152 98.296 540.672 91.976 566.592 89.256L568.512 94.776ZM526.272 163.416C519.552 163.416 513.152 164.856 507.072 167.736C505.952 177.336 505.392 188.936 505.392 202.536C505.392 219.176 506.912 232.456 509.952 242.376C513.152 252.136 519.472 257.016 528.912 257.016C537.392 257.016 543.712 253.016 547.872 245.016C552.032 236.856 554.112 225.256 554.112 210.216C554.112 195.176 552.112 183.656 548.112 175.656C544.112 167.496 536.832 163.416 526.272 163.416ZM744.468 95.976C728.308 120.936 715.748 146.936 706.788 173.976C697.828 200.856 691.028 229.656 686.388 260.376H637.428C641.108 239.256 650.628 216.936 665.988 193.416C681.348 169.736 698.388 147.736 717.108 127.416H628.308C626.548 127.416 625.348 127.816 624.708 128.616C624.068 129.256 623.508 130.776 623.028 133.176L621.108 142.056H616.308V92.376H741.828L744.468 95.976Z" fill="url(#paint0_radial_186_2536)"/>
</g>
<g filter="url(#filter2_d_186_2536)">
<mask id="path-4-outside-1_186_2536" maskUnits="userSpaceOnUse" x="8" y="8" width="441" height="112" fill="black">
<rect fill="white" x="8" y="8" width="441" height="112"/>
<path fill-rule="evenodd" clip-rule="evenodd" d="M74.824 107.976C74.824 109.061 75.0213 109.801 75.416 110.196C75.9093 110.591 76.896 110.936 78.376 111.232L83.852 112.416V115.376H35.604V112.416L41.08 111.232C42.56 110.936 43.4973 110.591 43.892 110.196C44.3853 109.801 44.632 109.061 44.632 107.976V15.92H41.228C35.2093 15.92 30.5227 16.9067 27.168 18.88C23.912 20.8533 21.396 23.4187 19.62 26.576C17.9427 29.7333 15.8213 34.7653 13.256 41.672H10V11.776H109.456V41.672H106.2C103.635 34.7653 101.464 29.7333 99.688 26.576C98.0107 23.4187 95.4947 20.8533 92.14 18.88C88.884 16.9067 84.2467 15.92 78.228 15.92H74.824V71.7201C71.5414 72.7172 69.1524 75.7676 69.1524 79.376C69.1524 82.9844 71.5414 86.0349 74.824 87.0319V107.976ZM176.446 10C193.12 10 206.44 14.2427 216.406 22.728C226.371 31.1147 231.354 44.7307 231.354 63.576C231.354 82.4213 226.371 96.0867 216.406 104.572C206.44 112.959 193.12 117.152 176.446 117.152C159.771 117.152 146.451 112.959 136.486 104.572C126.52 96.0867 121.538 82.4213 121.538 63.576C121.538 50.6246 123.916 40.122 128.672 32.0683C130.126 34.0725 132.487 35.376 135.152 35.376C138.149 35.376 140.761 33.7283 142.131 31.2895C142.463 31.3464 142.804 31.376 143.152 31.376C146.466 31.376 149.152 28.6897 149.152 25.376C149.152 22.0623 146.466 19.376 143.152 19.376C141.764 19.376 140.486 19.8476 139.469 20.6394C139.411 20.6024 139.353 20.5662 139.295 20.5307C148.985 13.5102 161.368 10 176.446 10ZM176.446 112.86C182.464 112.86 187.052 111.232 190.21 107.976C193.466 104.72 195.686 99.5893 196.87 92.584C198.054 85.5787 198.646 75.9093 198.646 63.576C198.646 51.2427 198.054 41.5733 196.87 34.568C195.686 27.5627 193.466 22.432 190.21 19.176C187.052 15.92 182.464 14.292 176.446 14.292C170.427 14.292 165.79 15.92 162.534 19.176C159.376 22.432 157.206 27.5627 156.022 34.568C154.838 41.5733 154.246 51.2427 154.246 63.576C154.246 75.9093 154.838 85.5787 156.022 92.584C157.206 99.5893 159.376 104.72 162.534 107.976C165.79 111.232 170.427 112.86 176.446 112.86ZM288.854 11.776C300.793 11.776 310.215 12.5653 317.122 14.144C324.127 15.7227 329.159 18.2387 332.218 21.692C335.375 25.1453 336.954 29.832 336.954 35.752C336.954 43.6453 334.586 49.4667 329.85 53.216C325.114 56.9653 317.566 59.3827 307.206 60.468C315.691 61.1587 322.499 62.4907 327.63 64.464C332.761 66.4373 336.51 69.348 338.878 73.196C341.345 76.9453 342.578 81.928 342.578 88.144C342.578 95.0507 340.703 100.477 336.954 104.424C333.205 108.371 327.383 111.183 319.49 112.86C311.695 114.537 301.187 115.376 287.966 115.376H243.418V112.416L248.894 111.232C250.374 110.936 251.311 110.591 251.706 110.196C252.199 109.801 252.446 109.061 252.446 107.976V106.3C252.841 106.35 253.244 106.376 253.652 106.376C258.899 106.376 263.152 102.123 263.152 96.876C263.152 91.6293 258.899 87.376 253.652 87.376C253.244 87.376 252.841 87.4018 252.446 87.4519V19.176C252.446 18.0907 252.199 17.3507 251.706 16.956C251.311 16.5613 250.374 16.216 248.894 15.92L243.418 14.736V11.776H288.854ZM289.89 58.544C296.007 58.544 300.546 56.6693 303.506 52.92C306.466 49.1707 307.946 43.448 307.946 35.752C307.946 29.1413 306.466 24.2573 303.506 21.1C300.645 17.844 296.106 16.216 289.89 16.216H282.638V58.544H289.89ZM282.638 110.936H289.298C304.493 110.936 312.09 103.339 312.09 88.144C312.09 79.264 310.511 72.8507 307.354 68.904C304.197 64.9573 298.573 62.984 290.482 62.984H282.638V110.936ZM358.449 111.232C359.929 110.936 360.866 110.591 361.261 110.196C361.754 109.801 362.001 109.061 362.001 107.976V19.176C362.001 18.0907 361.754 17.3507 361.261 16.956C360.866 16.5613 359.929 16.216 358.449 15.92L352.973 14.736V11.776H444.141V40.636H440.441C438.369 34.2227 436.395 29.388 434.521 26.132C434.347 25.8143 434.167 25.504 433.98 25.2013C434.35 25.3149 434.744 25.376 435.152 25.376C437.361 25.376 439.152 23.5851 439.152 21.376C439.152 19.1669 437.361 17.376 435.152 17.376C432.943 17.376 431.152 19.1669 431.152 21.376C431.152 21.4879 431.157 21.5988 431.166 21.7084C429.94 20.5328 428.542 19.5407 426.973 18.732C423.717 17.0547 419.129 16.216 413.209 16.216H392.193V41.3981C392.014 41.3835 391.834 41.376 391.652 41.376C388.062 41.376 385.152 44.2862 385.152 47.876C385.152 51.4659 388.062 54.376 391.652 54.376C391.834 54.376 392.014 54.3685 392.193 54.3539V60.172H430.377V64.612H392.193V110.936H414.689C420.51 110.936 425.098 110.048 428.453 108.272C431.807 106.496 434.422 103.931 436.297 100.576C438.27 97.2213 440.293 92.3373 442.365 85.924H446.213V115.376H352.973V112.416L358.449 111.232Z"/>
</mask>
<path fill-rule="evenodd" clip-rule="evenodd" d="M74.824 107.976C74.824 109.061 75.0213 109.801 75.416 110.196C75.9093 110.591 76.896 110.936 78.376 111.232L83.852 112.416V115.376H35.604V112.416L41.08 111.232C42.56 110.936 43.4973 110.591 43.892 110.196C44.3853 109.801 44.632 109.061 44.632 107.976V15.92H41.228C35.2093 15.92 30.5227 16.9067 27.168 18.88C23.912 20.8533 21.396 23.4187 19.62 26.576C17.9427 29.7333 15.8213 34.7653 13.256 41.672H10V11.776H109.456V41.672H106.2C103.635 34.7653 101.464 29.7333 99.688 26.576C98.0107 23.4187 95.4947 20.8533 92.14 18.88C88.884 16.9067 84.2467 15.92 78.228 15.92H74.824V71.7201C71.5414 72.7172 69.1524 75.7676 69.1524 79.376C69.1524 82.9844 71.5414 86.0349 74.824 87.0319V107.976ZM176.446 10C193.12 10 206.44 14.2427 216.406 22.728C226.371 31.1147 231.354 44.7307 231.354 63.576C231.354 82.4213 226.371 96.0867 216.406 104.572C206.44 112.959 193.12 117.152 176.446 117.152C159.771 117.152 146.451 112.959 136.486 104.572C126.52 96.0867 121.538 82.4213 121.538 63.576C121.538 50.6246 123.916 40.122 128.672 32.0683C130.126 34.0725 132.487 35.376 135.152 35.376C138.149 35.376 140.761 33.7283 142.131 31.2895C142.463 31.3464 142.804 31.376 143.152 31.376C146.466 31.376 149.152 28.6897 149.152 25.376C149.152 22.0623 146.466 19.376 143.152 19.376C141.764 19.376 140.486 19.8476 139.469 20.6394C139.411 20.6024 139.353 20.5662 139.295 20.5307C148.985 13.5102 161.368 10 176.446 10ZM176.446 112.86C182.464 112.86 187.052 111.232 190.21 107.976C193.466 104.72 195.686 99.5893 196.87 92.584C198.054 85.5787 198.646 75.9093 198.646 63.576C198.646 51.2427 198.054 41.5733 196.87 34.568C195.686 27.5627 193.466 22.432 190.21 19.176C187.052 15.92 182.464 14.292 176.446 14.292C170.427 14.292 165.79 15.92 162.534 19.176C159.376 22.432 157.206 27.5627 156.022 34.568C154.838 41.5733 154.246 51.2427 154.246 63.576C154.246 75.9093 154.838 85.5787 156.022 92.584C157.206 99.5893 159.376 104.72 162.534 107.976C165.79 111.232 170.427 112.86 176.446 112.86ZM288.854 11.776C300.793 11.776 310.215 12.5653 317.122 14.144C324.127 15.7227 329.159 18.2387 332.218 21.692C335.375 25.1453 336.954 29.832 336.954 35.752C336.954 43.6453 334.586 49.4667 329.85 53.216C325.114 56.9653 317.566 59.3827 307.206 60.468C315.691 61.1587 322.499 62.4907 327.63 64.464C332.761 66.4373 336.51 69.348 338.878 73.196C341.345 76.9453 342.578 81.928 342.578 88.144C342.578 95.0507 340.703 100.477 336.954 104.424C333.205 108.371 327.383 111.183 319.49 112.86C311.695 114.537 301.187 115.376 287.966 115.376H243.418V112.416L248.894 111.232C250.374 110.936 251.311 110.591 251.706 110.196C252.199 109.801 252.446 109.061 252.446 107.976V106.3C252.841 106.35 253.244 106.376 253.652 106.376C258.899 106.376 263.152 102.123 263.152 96.876C263.152 91.6293 258.899 87.376 253.652 87.376C253.244 87.376 252.841 87.4018 252.446 87.4519V19.176C252.446 18.0907 252.199 17.3507 251.706 16.956C251.311 16.5613 250.374 16.216 248.894 15.92L243.418 14.736V11.776H288.854ZM289.89 58.544C296.007 58.544 300.546 56.6693 303.506 52.92C306.466 49.1707 307.946 43.448 307.946 35.752C307.946 29.1413 306.466 24.2573 303.506 21.1C300.645 17.844 296.106 16.216 289.89 16.216H282.638V58.544H289.89ZM282.638 110.936H289.298C304.493 110.936 312.09 103.339 312.09 88.144C312.09 79.264 310.511 72.8507 307.354 68.904C304.197 64.9573 298.573 62.984 290.482 62.984H282.638V110.936ZM358.449 111.232C359.929 110.936 360.866 110.591 361.261 110.196C361.754 109.801 362.001 109.061 362.001 107.976V19.176C362.001 18.0907 361.754 17.3507 361.261 16.956C360.866 16.5613 359.929 16.216 358.449 15.92L352.973 14.736V11.776H444.141V40.636H440.441C438.369 34.2227 436.395 29.388 434.521 26.132C434.347 25.8143 434.167 25.504 433.98 25.2013C434.35 25.3149 434.744 25.376 435.152 25.376C437.361 25.376 439.152 23.5851 439.152 21.376C439.152 19.1669 437.361 17.376 435.152 17.376C432.943 17.376 431.152 19.1669 431.152 21.376C431.152 21.4879 431.157 21.5988 431.166 21.7084C429.94 20.5328 428.542 19.5407 426.973 18.732C423.717 17.0547 419.129 16.216 413.209 16.216H392.193V41.3981C392.014 41.3835 391.834 41.376 391.652 41.376C388.062 41.376 385.152 44.2862 385.152 47.876C385.152 51.4659 388.062 54.376 391.652 54.376C391.834 54.376 392.014 54.3685 392.193 54.3539V60.172H430.377V64.612H392.193V110.936H414.689C420.51 110.936 425.098 110.048 428.453 108.272C431.807 106.496 434.422 103.931 436.297 100.576C438.27 97.2213 440.293 92.3373 442.365 85.924H446.213V115.376H352.973V112.416L358.449 111.232Z" fill="white"/>
<path d="M75.416 110.196L74.0018 111.61L74.0801 111.689L74.1666 111.758L75.416 110.196ZM78.376 111.232L78.7987 109.277L78.7835 109.274L78.7682 109.271L78.376 111.232ZM83.852 112.416H85.852V110.802L84.2747 110.461L83.852 112.416ZM83.852 115.376V117.376H85.852V115.376H83.852ZM35.604 115.376H33.604V117.376H35.604V115.376ZM35.604 112.416L35.1813 110.461L33.604 110.802V112.416H35.604ZM41.08 111.232L40.6878 109.271L40.6725 109.274L40.6573 109.277L41.08 111.232ZM43.892 110.196L42.6426 108.634L42.5561 108.703L42.4778 108.782L43.892 110.196ZM44.632 15.92H46.632V13.92H44.632V15.92ZM27.168 18.88L26.154 17.1561L26.1426 17.1628L26.1314 17.1696L27.168 18.88ZM19.62 26.576L17.8768 25.5955L17.8651 25.6164L17.8538 25.6377L19.62 26.576ZM13.256 41.672V43.672H14.6466L15.1309 42.3684L13.256 41.672ZM10 41.672H8V43.672H10V41.672ZM10 11.776V9.77599H8V11.776H10ZM109.456 11.776H111.456V9.77599H109.456V11.776ZM109.456 41.672V43.672H111.456V41.672H109.456ZM106.2 41.672L104.325 42.3684L104.809 43.672H106.2V41.672ZM99.688 26.576L97.9218 27.5143L97.9331 27.5356L97.9449 27.5565L99.688 26.576ZM92.14 18.88L91.1034 20.5904L91.1146 20.5972L91.126 20.6039L92.14 18.88ZM74.824 15.92V13.92H72.824V15.92H74.824ZM74.824 71.7201L75.4053 73.6338L76.824 73.2029V71.7201H74.824ZM74.824 87.0319H76.824V85.5491L75.4052 85.1182L74.824 87.0319ZM216.406 22.728L215.109 24.2508L215.118 24.2582L216.406 22.728ZM216.406 104.572L217.693 106.102L217.702 106.095L216.406 104.572ZM136.486 104.572L135.189 106.095L135.198 106.102L136.486 104.572ZM128.672 32.0683L130.291 30.894L128.501 28.4257L126.95 31.0512L128.672 32.0683ZM142.131 31.2895L142.469 29.3183L141.079 29.0799L140.388 30.3097L142.131 31.2895ZM139.469 20.6394L138.388 22.3223L139.58 23.0876L140.698 22.2173L139.469 20.6394ZM139.295 20.5307L138.121 18.9111L135.682 20.6786L138.258 22.2408L139.295 20.5307ZM190.21 107.976L188.795 106.562L188.785 106.573L188.774 106.584L190.21 107.976ZM196.87 92.584L194.898 92.2507L196.87 92.584ZM196.87 34.568L194.898 34.9013V34.9013L196.87 34.568ZM190.21 19.176L188.774 20.5683L188.785 20.5793L188.795 20.5902L190.21 19.176ZM162.534 19.176L161.119 17.7618L161.109 17.7727L161.098 17.7837L162.534 19.176ZM156.022 34.568L157.994 34.9013L156.022 34.568ZM162.534 107.976L161.098 109.368L161.109 109.379L161.119 109.39L162.534 107.976ZM317.122 14.144L316.676 16.0937L316.682 16.0951L317.122 14.144ZM332.218 21.692L330.721 23.0181L330.731 23.0299L330.742 23.0415L332.218 21.692ZM329.85 53.216L331.091 54.7841L331.091 54.7841L329.85 53.216ZM307.206 60.468L306.998 58.4789L307.044 62.4614L307.206 60.468ZM327.63 64.464L328.348 62.5973L327.63 64.464ZM338.878 73.196L337.175 74.2442L337.191 74.27L337.207 74.2952L338.878 73.196ZM336.954 104.424L338.404 105.801L336.954 104.424ZM319.49 112.86L319.074 110.904L319.069 110.905L319.49 112.86ZM243.418 115.376H241.418V117.376H243.418V115.376ZM243.418 112.416L242.995 110.461L241.418 110.802V112.416H243.418ZM248.894 111.232L248.502 109.271L248.486 109.274L248.471 109.277L248.894 111.232ZM251.706 110.196L250.457 108.634L250.37 108.703L250.292 108.782L251.706 110.196ZM252.446 106.3L252.697 104.316L250.446 104.031V106.3H252.446ZM252.446 87.4519H250.446V89.7213L252.697 89.436L252.446 87.4519ZM251.706 16.956L250.292 18.3702L250.37 18.4485L250.457 18.5177L251.706 16.956ZM248.894 15.92L248.471 17.8748L248.486 17.8781L248.502 17.8812L248.894 15.92ZM243.418 14.736H241.418V16.3498L242.995 16.6908L243.418 14.736ZM243.418 11.776V9.77599H241.418V11.776H243.418ZM303.506 52.92L301.936 51.6807V51.6807L303.506 52.92ZM303.506 21.1L302.004 22.4202L302.025 22.4444L302.047 22.4679L303.506 21.1ZM282.638 16.216V14.216H280.638V16.216H282.638ZM282.638 58.544H280.638V60.544H282.638V58.544ZM282.638 110.936H280.638V112.936H282.638V110.936ZM307.354 68.904L308.916 67.6546V67.6546L307.354 68.904ZM282.638 62.984V60.984H280.638V62.984H282.638ZM361.261 110.196L360.011 108.634L359.925 108.703L359.846 108.782L361.261 110.196ZM358.449 111.232L358.056 109.271L358.041 109.274L358.026 109.277L358.449 111.232ZM361.261 16.956L359.846 18.3702L359.925 18.4485L360.011 18.5178L361.261 16.956ZM358.449 15.92L358.026 17.8748L358.041 17.8781L358.056 17.8812L358.449 15.92ZM352.973 14.736H350.973V16.3498L352.55 16.6908L352.973 14.736ZM352.973 11.776V9.77599H350.973V11.776H352.973ZM444.141 11.776H446.141V9.77599H444.141V11.776ZM444.141 40.636V42.636H446.141V40.636H444.141ZM440.441 40.636L438.538 41.2509L438.985 42.636H440.441V40.636ZM434.521 26.132L432.765 27.0897L432.776 27.1099L432.787 27.1299L434.521 26.132ZM433.98 25.2013L434.565 23.289L429.479 21.7316L432.279 26.2541L433.98 25.2013ZM431.166 21.7084L429.782 23.1519L433.591 26.8057L433.159 21.5447L431.166 21.7084ZM426.973 18.732L427.889 16.954V16.954L426.973 18.732ZM392.193 16.216V14.216H390.193V16.216H392.193ZM392.193 41.3981L392.029 43.3914L394.193 43.5695V41.3981H392.193ZM392.193 54.3539H394.193V52.1825L392.029 52.3606L392.193 54.3539ZM392.193 60.172H390.193V62.172H392.193V60.172ZM430.377 60.172H432.377V58.172H430.377V60.172ZM430.377 64.612V66.612H432.377V64.612H430.377ZM392.193 64.612V62.612H390.193V64.612H392.193ZM392.193 110.936H390.193V112.936H392.193V110.936ZM428.453 108.272L427.517 106.504L428.453 108.272ZM436.297 100.576L434.573 99.562L434.562 99.581L434.551 99.6004L436.297 100.576ZM442.365 85.924V83.924H440.909L440.462 85.3091L442.365 85.924ZM446.213 85.924H448.213V83.924H446.213V85.924ZM446.213 115.376V117.376H448.213V115.376H446.213ZM352.973 115.376H350.973V117.376H352.973V115.376ZM352.973 112.416L352.55 110.461L350.973 110.802V112.416H352.973ZM76.8302 108.782C76.9575 108.909 76.9448 108.981 76.9045 108.83C76.865 108.681 76.824 108.411 76.824 107.976H72.824C72.824 109.151 73.0062 110.615 74.0018 111.61L76.8302 108.782ZM78.7682 109.271C78.0831 109.134 77.5633 108.995 77.1867 108.863C76.786 108.723 76.6578 108.628 76.6654 108.634L74.1666 111.758C74.6676 112.159 75.2793 112.434 75.8653 112.639C76.4754 112.852 77.1889 113.034 77.9838 113.193L78.7682 109.271ZM84.2747 110.461L78.7987 109.277L77.9533 113.187L83.4293 114.371L84.2747 110.461ZM85.852 115.376V112.416H81.852V115.376H85.852ZM35.604 117.376H83.852V113.376H35.604V117.376ZM33.604 112.416V115.376H37.604V112.416H33.604ZM40.6573 109.277L35.1813 110.461L36.0267 114.371L41.5027 113.187L40.6573 109.277ZM42.4778 108.782C42.588 108.672 42.5802 108.735 42.2016 108.874C41.8661 108.998 41.3718 109.134 40.6878 109.271L41.4722 113.193C42.2682 113.034 42.9826 112.849 43.5844 112.628C44.1432 112.422 44.8014 112.115 45.3062 111.61L42.4778 108.782ZM42.632 107.976C42.632 108.381 42.5842 108.609 42.5496 108.713C42.5195 108.803 42.5245 108.729 42.6426 108.634L45.1414 111.758C46.3619 110.781 46.632 109.247 46.632 107.976H42.632ZM42.632 15.92V107.976H46.632V15.92H42.632ZM41.228 17.92H44.632V13.92H41.228V17.92ZM28.182 20.6039C31.1053 18.8843 35.3874 17.92 41.228 17.92V13.92C35.0312 13.92 29.94 14.929 26.154 17.1561L28.182 20.6039ZM21.3632 27.5565C22.9617 24.7147 25.2274 22.3947 28.2046 20.5904L26.1314 17.1696C22.5966 19.3119 19.8303 22.1226 17.8768 25.5955L21.3632 27.5565ZM15.1309 42.3684C17.6905 35.477 19.7743 30.5486 21.3862 27.5143L17.8538 25.6377C16.1111 28.9181 13.9522 34.0537 11.3811 40.9756L15.1309 42.3684ZM10 43.672H13.256V39.672H10V43.672ZM8 11.776V41.672H12V11.776H8ZM109.456 9.77599H10V13.776H109.456V9.77599ZM111.456 41.672V11.776H107.456V41.672H111.456ZM106.2 43.672H109.456V39.672H106.2V43.672ZM97.9449 27.5565C99.6405 30.571 101.767 35.4812 104.325 42.3684L108.075 40.9756C105.502 34.0495 103.288 28.8957 101.431 25.5955L97.9449 27.5565ZM91.126 20.6039C94.1914 22.4071 96.433 24.712 97.9218 27.5143L101.454 25.6377C99.5883 22.1253 96.798 19.2996 93.154 17.1561L91.126 20.6039ZM78.228 17.92C84.0744 17.92 88.2919 18.8864 91.1034 20.5904L93.1766 17.1696C89.4761 14.9269 84.4189 13.92 78.228 13.92V17.92ZM74.824 17.92H78.228V13.92H74.824V17.92ZM76.824 71.7201V15.92H72.824V71.7201H76.824ZM71.1524 79.376C71.1524 76.6727 72.9417 74.382 75.4053 73.6338L74.2428 69.8064C70.141 71.0523 67.1524 74.8625 67.1524 79.376H71.1524ZM75.4052 85.1182C72.9417 84.37 71.1524 82.0793 71.1524 79.376H67.1524C67.1524 83.8895 70.141 87.6998 74.2428 88.9456L75.4052 85.1182ZM76.824 107.976V87.0319H72.824V107.976H76.824ZM217.702 21.2052C207.285 12.3351 193.462 8 176.446 8V12C192.779 12 205.596 16.1502 215.109 24.2508L217.702 21.2052ZM233.354 63.576C233.354 44.4123 228.284 30.1102 217.693 21.1978L215.118 24.2582C224.458 32.1191 229.354 45.049 229.354 63.576H233.354ZM217.702 106.095C228.283 97.0856 233.354 82.7418 233.354 63.576H229.354C229.354 82.1009 224.459 95.0877 215.109 103.049L217.702 106.095ZM176.446 119.152C193.457 119.152 207.276 114.869 217.693 106.102L215.118 103.042C205.604 111.048 192.784 115.152 176.446 115.152V119.152ZM135.198 106.102C145.615 114.869 159.435 119.152 176.446 119.152V115.152C160.107 115.152 147.287 111.048 137.773 103.042L135.198 106.102ZM119.538 63.576C119.538 82.7418 124.609 97.0856 135.189 106.095L137.782 103.049C128.432 95.0877 123.538 82.1009 123.538 63.576H119.538ZM126.95 31.0512C121.955 39.5094 119.538 50.3984 119.538 63.576H123.538C123.538 50.8508 125.877 40.7346 130.394 33.0853L126.95 31.0512ZM135.152 33.376C133.155 33.376 131.385 32.4019 130.291 30.894L127.053 33.2426C128.867 35.7432 131.819 37.376 135.152 37.376V33.376ZM140.388 30.3097C139.357 32.144 137.397 33.376 135.152 33.376V37.376C138.901 37.376 142.165 35.3126 143.875 32.2693L140.388 30.3097ZM143.152 29.376C142.918 29.376 142.69 29.3561 142.469 29.3183L141.794 33.2607C142.236 33.3367 142.691 33.376 143.152 33.376V29.376ZM147.152 25.376C147.152 27.5851 145.361 29.376 143.152 29.376V33.376C147.571 33.376 151.152 29.7943 151.152 25.376H147.152ZM143.152 21.376C145.361 21.376 147.152 23.1669 147.152 25.376H151.152C151.152 20.9577 147.571 17.376 143.152 17.376V21.376ZM140.698 22.2173C141.376 21.6894 142.225 21.376 143.152 21.376V17.376C141.303 17.376 139.596 18.0058 138.24 19.0614L140.698 22.2173ZM138.258 22.2408C138.302 22.2674 138.345 22.2946 138.388 22.3223L140.55 18.9564C140.478 18.9103 140.405 18.865 140.332 18.8207L138.258 22.2408ZM176.446 8C161.057 8 148.232 11.5856 138.121 18.9111L140.468 22.1503C149.737 15.4349 161.679 12 176.446 12V8ZM188.774 106.584C186.105 109.336 182.107 110.86 176.446 110.86V114.86C182.821 114.86 188 113.128 191.645 109.368L188.774 106.584ZM194.898 92.2507C193.748 99.0542 191.638 103.72 188.795 106.562L191.624 109.39C195.294 105.72 197.624 100.124 198.842 92.9173L194.898 92.2507ZM196.646 63.576C196.646 75.8662 196.054 85.407 194.898 92.2507L198.842 92.9173C200.053 85.7503 200.646 75.9525 200.646 63.576H196.646ZM194.898 34.9013C196.054 41.745 196.646 51.2858 196.646 63.576H200.646C200.646 51.1995 200.053 41.4017 198.842 34.2347L194.898 34.9013ZM188.795 20.5902C191.638 23.4323 193.748 28.0978 194.898 34.9013L198.842 34.2347C197.624 27.0276 195.294 21.4317 191.624 17.7618L188.795 20.5902ZM176.446 16.292C182.107 16.292 186.105 17.8155 188.774 20.5683L191.645 17.7837C188 14.0245 182.821 12.292 176.446 12.292V16.292ZM163.948 20.5902C166.724 17.8142 170.788 16.292 176.446 16.292V12.292C170.066 12.292 164.855 14.0258 161.119 17.7618L163.948 20.5902ZM157.994 34.9013C159.146 28.0859 161.212 23.4116 163.969 20.5683L161.098 17.7837C157.54 21.4524 155.266 27.0394 154.05 34.2347L157.994 34.9013ZM156.246 63.576C156.246 51.2858 156.837 41.745 157.994 34.9013L154.05 34.2347C152.838 41.4017 152.246 51.1995 152.246 63.576H156.246ZM157.994 92.2507C156.837 85.407 156.246 75.8662 156.246 63.576H152.246C152.246 75.9525 152.838 85.7503 154.05 92.9173L157.994 92.2507ZM163.969 106.584C161.212 103.74 159.146 99.0661 157.994 92.2507L154.05 92.9173C155.266 100.113 157.54 105.7 161.098 109.368L163.969 106.584ZM176.446 110.86C170.788 110.86 166.724 109.338 163.948 106.562L161.119 109.39C164.855 113.126 170.066 114.86 176.446 114.86V110.86ZM317.568 12.1943C310.449 10.5672 300.856 9.77599 288.854 9.77599V13.776C300.73 13.776 309.982 14.5635 316.676 16.0937L317.568 12.1943ZM333.715 20.3659C330.262 16.4675 324.764 13.816 317.562 12.1929L316.682 16.0951C323.491 17.6294 328.056 20.0099 330.721 23.0181L333.715 20.3659ZM338.954 35.752C338.954 29.47 337.271 24.2547 333.694 20.3425L330.742 23.0415C333.48 26.036 334.954 30.194 334.954 35.752H338.954ZM331.091 54.7841C336.446 50.5452 338.954 44.0537 338.954 35.752H334.954C334.954 43.237 332.726 48.3881 328.609 51.6479L331.091 54.7841ZM307.414 62.4571C317.911 61.3575 325.913 58.884 331.091 54.7841L328.609 51.6479C324.315 55.0467 317.221 57.4078 306.998 58.4789L307.414 62.4571ZM328.348 62.5973C322.97 60.5287 315.952 59.1733 307.368 58.4746L307.044 62.4614C315.431 63.1441 322.029 64.4526 326.912 66.3307L328.348 62.5973ZM340.581 72.1478C337.937 67.851 333.797 64.6931 328.348 62.5973L326.912 66.3307C331.724 68.1816 335.083 70.845 337.175 74.2442L340.581 72.1478ZM344.578 88.144C344.578 81.6826 343.298 76.2757 340.549 72.0968L337.207 74.2952C339.391 77.6149 340.578 82.1734 340.578 88.144H344.578ZM338.404 105.801C342.594 101.391 344.578 95.4197 344.578 88.144H340.578C340.578 94.6817 338.812 99.5641 335.504 103.047L338.404 105.801ZM319.906 114.816C328.014 113.093 334.272 110.151 338.404 105.801L335.504 103.046C332.137 106.59 326.753 109.272 319.074 110.904L319.906 114.816ZM287.966 117.376C301.249 117.376 311.917 116.535 319.911 114.815L319.069 110.905C311.473 112.539 301.125 113.376 287.966 113.376V117.376ZM243.418 117.376H287.966V113.376H243.418V117.376ZM241.418 112.416V115.376H245.418V112.416H241.418ZM248.471 109.277L242.995 110.461L243.841 114.371L249.317 113.187L248.471 109.277ZM250.292 108.782C250.402 108.672 250.394 108.735 250.016 108.874C249.68 108.998 249.186 109.134 248.502 109.271L249.286 113.193C250.082 113.034 250.797 112.849 251.398 112.628C251.957 112.422 252.615 112.115 253.12 111.61L250.292 108.782ZM250.446 107.976C250.446 108.381 250.398 108.609 250.364 108.713C250.333 108.803 250.338 108.729 250.457 108.634L252.955 111.758C254.176 110.781 254.446 109.247 254.446 107.976H250.446ZM250.446 106.3V107.976H254.446V106.3H250.446ZM253.652 104.376C253.328 104.376 253.009 104.356 252.697 104.316L252.195 108.284C252.673 108.345 253.159 108.376 253.652 108.376V104.376ZM261.152 96.876C261.152 101.018 257.794 104.376 253.652 104.376V108.376C260.004 108.376 265.152 103.227 265.152 96.876H261.152ZM253.652 89.376C257.794 89.376 261.152 92.7339 261.152 96.876H265.152C265.152 90.5247 260.004 85.376 253.652 85.376V89.376ZM252.697 89.436C253.009 89.3965 253.328 89.376 253.652 89.376V85.376C253.159 85.376 252.673 85.4072 252.195 85.4678L252.697 89.436ZM250.446 19.176V87.4519H254.446V19.176H250.446ZM250.457 18.5177C250.338 18.4232 250.333 18.3491 250.364 18.4395C250.398 18.543 250.446 18.7707 250.446 19.176H254.446C254.446 17.9047 254.176 16.3706 252.955 15.3943L250.457 18.5177ZM248.502 17.8812C249.186 18.018 249.68 18.1541 250.016 18.2777C250.394 18.4172 250.402 18.4804 250.292 18.3702L253.12 15.5418C252.615 15.037 251.957 14.7302 251.398 14.5243C250.797 14.3026 250.082 14.118 249.286 13.9588L248.502 17.8812ZM242.995 16.6908L248.471 17.8748L249.317 13.9652L243.841 12.7812L242.995 16.6908ZM241.418 11.776V14.736H245.418V11.776H241.418ZM288.854 9.77599H243.418V13.776H288.854V9.77599ZM301.936 51.6807C299.458 54.8197 295.582 56.544 289.89 56.544V60.544C296.432 60.544 301.634 58.519 305.076 54.1593L301.936 51.6807ZM305.946 35.752C305.946 43.2536 304.492 48.4428 301.936 51.6807L305.076 54.1593C308.44 49.8985 309.946 43.6424 309.946 35.752H305.946ZM302.047 22.4679C304.515 25.1004 305.946 29.389 305.946 35.752H309.946C309.946 28.8936 308.417 23.4143 304.965 19.7321L302.047 22.4679ZM289.89 18.216C295.787 18.216 299.664 19.7574 302.004 22.4202L305.008 19.7798C301.626 15.9306 296.425 14.216 289.89 14.216V18.216ZM282.638 18.216H289.89V14.216H282.638V18.216ZM284.638 58.544V16.216H280.638V58.544H284.638ZM289.89 56.544H282.638V60.544H289.89V56.544ZM289.298 108.936H282.638V112.936H289.298V108.936ZM310.09 88.144C310.09 95.433 308.269 100.532 304.978 103.824C301.686 107.115 296.587 108.936 289.298 108.936V112.936C297.204 112.936 303.5 110.958 307.806 106.652C312.112 102.346 314.09 96.0496 314.09 88.144H310.09ZM305.792 70.1534C308.52 73.5629 310.09 79.4101 310.09 88.144H314.09C314.09 79.1179 312.503 72.1385 308.916 67.6546L305.792 70.1534ZM290.482 64.984C298.329 64.984 303.195 66.9067 305.792 70.1534L308.916 67.6546C305.198 63.0079 298.816 60.984 290.482 60.984V64.984ZM282.638 64.984H290.482V60.984H282.638V64.984ZM284.638 110.936V62.984H280.638V110.936H284.638ZM359.846 108.782C359.957 108.672 359.949 108.735 359.57 108.874C359.235 108.998 358.74 109.134 358.056 109.271L358.841 113.193C359.637 113.034 360.351 112.849 360.953 112.628C361.512 112.422 362.17 112.115 362.675 111.61L359.846 108.782ZM360.001 107.976C360.001 108.381 359.953 108.609 359.918 108.713C359.888 108.803 359.893 108.729 360.011 108.634L362.51 111.758C363.731 110.781 364.001 109.247 364.001 107.976H360.001ZM360.001 19.176V107.976H364.001V19.176H360.001ZM360.011 18.5178C359.893 18.4232 359.888 18.3491 359.918 18.4394C359.953 18.543 360.001 18.7707 360.001 19.176H364.001C364.001 17.9048 363.731 16.3706 362.51 15.3942L360.011 18.5178ZM358.056 17.8812C358.74 18.018 359.235 18.1541 359.57 18.2777C359.949 18.4172 359.957 18.4804 359.846 18.3702L362.675 15.5418C362.17 15.037 361.512 14.7302 360.953 14.5243C360.351 14.3026 359.637 14.118 358.841 13.9588L358.056 17.8812ZM352.55 16.6908L358.026 17.8748L358.871 13.9652L353.395 12.7812L352.55 16.6908ZM350.973 11.776V14.736H354.973V11.776H350.973ZM444.141 9.77599H352.973V13.776H444.141V9.77599ZM446.141 40.636V11.776H442.141V40.636H446.141ZM440.441 42.636H444.141V38.636H440.441V42.636ZM432.787 27.1299C434.558 30.2049 436.48 34.8836 438.538 41.2509L442.344 40.0211C440.257 33.5617 438.233 28.5711 436.254 25.1341L432.787 27.1299ZM432.279 26.2541C432.447 26.5251 432.609 26.8036 432.765 27.0897L436.276 25.1743C436.086 24.8249 435.887 24.4829 435.68 24.1485L432.279 26.2541ZM435.152 23.376C434.945 23.376 434.748 23.3451 434.565 23.289L433.394 27.1137C433.953 27.2847 434.544 27.376 435.152 27.376V23.376ZM437.152 21.376C437.152 22.4806 436.257 23.376 435.152 23.376V27.376C438.466 27.376 441.152 24.6897 441.152 21.376H437.152ZM435.152 19.376C436.257 19.376 437.152 20.2714 437.152 21.376H441.152C441.152 18.0623 438.466 15.376 435.152 15.376V19.376ZM433.152 21.376C433.152 20.2714 434.048 19.376 435.152 19.376V15.376C431.839 15.376 429.152 18.0623 429.152 21.376H433.152ZM433.159 21.5447C433.155 21.4893 433.152 21.433 433.152 21.376H429.152C429.152 21.5429 429.159 21.7083 429.173 21.8721L433.159 21.5447ZM426.057 20.5099C427.462 21.2338 428.7 22.115 429.782 23.1519L432.55 20.265C431.18 18.9506 429.623 17.8475 427.889 16.954L426.057 20.5099ZM413.209 18.216C418.985 18.216 423.207 19.0417 426.057 20.5099L427.889 16.954C424.227 15.0676 419.272 14.216 413.209 14.216V18.216ZM392.193 18.216H413.209V14.216H392.193V18.216ZM394.193 41.3981V16.216H390.193V41.3981H394.193ZM391.652 43.376C391.78 43.376 391.905 43.3812 392.029 43.3914L392.357 39.4049C392.124 39.3857 391.889 39.376 391.652 39.376V43.376ZM387.152 47.876C387.152 45.3907 389.167 43.376 391.652 43.376V39.376C386.958 39.376 383.152 43.1816 383.152 47.876H387.152ZM391.652 52.376C389.167 52.376 387.152 50.3613 387.152 47.876H383.152C383.152 52.5704 386.958 56.376 391.652 56.376V52.376ZM392.029 52.3606C391.905 52.3708 391.779 52.376 391.652 52.376V56.376C391.889 56.376 392.124 56.3663 392.357 56.3471L392.029 52.3606ZM394.193 60.172V54.3539H390.193V60.172H394.193ZM430.377 58.172H392.193V62.172H430.377V58.172ZM432.377 64.612V60.172H428.377V64.612H432.377ZM392.193 66.612H430.377V62.612H392.193V66.612ZM394.193 110.936V64.612H390.193V110.936H394.193ZM414.689 108.936H392.193V112.936H414.689V108.936ZM427.517 106.504C424.564 108.068 420.342 108.936 414.689 108.936V112.936C420.678 112.936 425.632 112.028 429.388 110.04L427.517 106.504ZM434.551 99.6004C432.862 102.623 430.526 104.911 427.517 106.504L429.388 110.04C433.088 108.081 435.982 105.238 438.043 101.552L434.551 99.6004ZM440.462 85.3091C438.407 91.6685 436.437 96.3924 434.573 99.562L438.021 101.59C440.103 98.0503 442.178 93.0061 444.268 86.5389L440.462 85.3091ZM446.213 83.924H442.365V87.924H446.213V83.924ZM448.213 115.376V85.924H444.213V115.376H448.213ZM352.973 117.376H446.213V113.376H352.973V117.376ZM350.973 112.416V115.376H354.973V112.416H350.973ZM358.026 109.277L352.55 110.461L353.395 114.371L358.871 113.187L358.026 109.277Z" fill="white" mask="url(#path-4-outside-1_186_2536)"/>
</g>
</g>
<defs>
<filter id="filter0_d_186_2536" x="0" y="0" width="752.468" height="271.256" filterUnits="userSpaceOnUse" color-interpolation-filters="sRGB">
<feFlood flood-opacity="0" result="BackgroundImageFix"/>
<feColorMatrix in="SourceAlpha" type="matrix" values="0 0 0 0 0 0 0 0 0 0 0 0 0 0 0 0 0 0 127 0" result="hardAlpha"/>
<feOffset/>
<feGaussianBlur stdDeviation="4"/>
<feComposite in2="hardAlpha" operator="out"/>
<feColorMatrix type="matrix" values="0 0 0 0 0 0 0 0 0 0 0 0 0 0 0 0 0 0 0.75 0"/>
<feBlend mode="normal" in2="BackgroundImageFix" result="effect1_dropShadow_186_2536"/>
<feBlend mode="normal" in="SourceGraphic" in2="effect1_dropShadow_186_2536" result="shape"/>
</filter>
<filter id="filter1_d_186_2536" x="239.592" y="89.256" width="504.876" height="180" filterUnits="userSpaceOnUse" color-interpolation-filters="sRGB">
<feFlood flood-opacity="0" result="BackgroundImageFix"/>
<feColorMatrix in="SourceAlpha" type="matrix" values="0 0 0 0 0 0 0 0 0 0 0 0 0 0 0 0 0 0 127 0" result="hardAlpha"/>
<feOffset dy="6"/>
<feComposite in2="hardAlpha" operator="out"/>
<feColorMatrix type="matrix" values="0 0 0 0 0 0 0 0 0 0 0 0 0 0 0 0 0 0 0.25 0"/>
<feBlend mode="normal" in2="BackgroundImageFix" result="effect1_dropShadow_186_2536"/>
<feBlend mode="normal" in="SourceGraphic" in2="effect1_dropShadow_186_2536" result="shape"/>
</filter>
<filter id="filter2_d_186_2536" x="8" y="8" width="440.213" height="117.152" filterUnits="userSpaceOnUse" color-interpolation-filters="sRGB">
<feFlood flood-opacity="0" result="BackgroundImageFix"/>
<feColorMatrix in="SourceAlpha" type="matrix" values="0 0 0 0 0 0 0 0 0 0 0 0 0 0 0 0 0 0 127 0" result="hardAlpha"/>
<feOffset dy="6"/>
<feComposite in2="hardAlpha" operator="out"/>
<feColorMatrix type="matrix" values="0 0 0 0 0 0 0 0 0 0 0 0 0 0 0 0 0 0 0.25 0"/>
<feBlend mode="normal" in2="BackgroundImageFix" result="effect1_dropShadow_186_2536"/>
<feBlend mode="normal" in="SourceGraphic" in2="effect1_dropShadow_186_2536" result="shape"/>
</filter>
<radialGradient id="paint0_radial_186_2536" cx="0" cy="0" r="1" gradientUnits="userSpaceOnUse" gradientTransform="translate(628.152 87.376) rotate(125.914) scale(389.554 172.295)">
<stop offset="0.25" stop-color="#FB8763"/>
<stop offset="0.440241" stop-color="#FC6F68"/>
<stop offset="1" stop-color="#4BC7CF"/>
</radialGradient>
</defs>
</svg>
