<svg width="400" height="91" viewBox="0 0 400 91" fill="none" xmlns="http://www.w3.org/2000/svg">
<path d="M0 23.4628C0 23.4628 14.3361 13.7305 20.2312 10.2432C50.289 -7.53744 81.3386 6.87638 105.896 18.4997C131.098 30.4283 155.966 -4.83264 186.936 6.95765C221.965 20.2931 242.428 26.0371 277.572 14.4951C301.989 6.47614 325.202 26.671 343.353 26.671C357.803 26.671 369.225 28.1445 381.734 18.9403C389.227 13.4272 399.769 0 399.769 0V90.2562H386.443C373.118 90.2562 346.466 90.2562 319.815 90.2562C293.164 90.2562 266.513 90.2562 239.861 90.2562C213.21 90.2562 186.559 90.2562 159.908 90.2562C133.256 90.2562 106.605 90.2562 79.9538 90.2562C53.3025 90.2562 26.6513 90.2562 13.3256 90.2562H0V23.4628Z" fill="#73DBDD"/>
</svg>
